HIERARCHY
ROOT Hips
{
	OFFSET 0.000000 1.471914 24.280096
	CHANNELS 6 Xposition Yposition Zposition Xrotation Yrotation Zrotation
	JOINT Spine
	{
		OFFSET 0.000000 0.900110 1.860670
		CHANNELS 6 Xposition Yposition Zposition Xrotation Yrotation Zrotation
		JOINT Spine1
		{
			OFFSET 0.000000 0.400320 2.270309
			CHANNELS 6 Xposition Yposition Zposition Xrotation Yrotation Zrotation
			JOINT Spine2
			{
				OFFSET 0.000000 0.200920 2.296560
				CHANNELS 6 Xposition Yposition Zposition Xrotation Yrotation Zrotation
				JOINT Spine3
				{
					OFFSET 0.000000 0.000000 2.305330
					CHANNELS 6 Xposition Yposition Zposition Xrotation Yrotation Zrotation
					JOINT Neck
					{
						OFFSET 0.000000 -0.864490 6.051487
						CHANNELS 6 Xposition Yposition Zposition Xrotation Yrotation Zrotation
						JOINT Head
						{
							OFFSET 0.000000 -0.550429 3.121674
							CHANNELS 6 Xposition Yposition Zposition Xrotation Yrotation Zrotation
							End Site
							{
								OFFSET 0.000000 0.000000 3.731750
							}
						}
					}
					JOINT RightShoulder
					{
						OFFSET -0.788280 -1.313800 4.256718
						CHANNELS 6 Xposition Yposition Zposition Xrotation Yrotation Zrotation
						JOINT RightArm
						{
							OFFSET -3.915130 0.000000 0.000000
							CHANNELS 6 Xposition Yposition Zposition Xrotation Yrotation Zrotation
							JOINT RightForeArm
							{
								OFFSET -6.914910 0.000000 0.000000
								CHANNELS 6 Xposition Yposition Zposition Xrotation Yrotation Zrotation
								JOINT RightHand
								{
									OFFSET -6.096219 0.000000 0.000000
									CHANNELS 6 Xposition Yposition Zposition Xrotation Yrotation Zrotation
									JOINT RightHandEnd
									{
										OFFSET -1.749950 0.000000 0.000000
										CHANNELS 6 Xposition Yposition Zposition Xrotation Yrotation Zrotation
										End Site
										{
											OFFSET -1.749950 0.000000 0.000000
										}
									}
									JOINT RightHandThumb1
									{
										OFFSET -0.699980 -1.166630 -0.466648
										CHANNELS 6 Xposition Yposition Zposition Xrotation Yrotation Zrotation
										End Site
										{
											OFFSET -1.690319 -0.452920 0.000000
										}
									}
								}
							}
						}
					}
					JOINT LeftShoulder
					{
						OFFSET 0.788280 -1.313800 4.256718
						CHANNELS 6 Xposition Yposition Zposition Xrotation Yrotation Zrotation
						JOINT LeftArm
						{
							OFFSET 3.915130 0.000000 0.000000
							CHANNELS 6 Xposition Yposition Zposition Xrotation Yrotation Zrotation
							JOINT LeftForeArm
							{
								OFFSET 6.914910 0.000000 0.000000
								CHANNELS 6 Xposition Yposition Zposition Xrotation Yrotation Zrotation
								JOINT LeftHand
								{
									OFFSET 6.096219 0.000000 0.000000
									CHANNELS 6 Xposition Yposition Zposition Xrotation Yrotation Zrotation
									JOINT LeftHandEnd
									{
										OFFSET 1.749950 0.000000 0.000000
										CHANNELS 6 Xposition Yposition Zposition Xrotation Yrotation Zrotation
										End Site
										{
											OFFSET 1.749950 0.000000 0.000000
										}
									}
									JOINT LeftHandThumb1
									{
										OFFSET 0.699980 -1.166630 -0.466648
										CHANNELS 6 Xposition Yposition Zposition Xrotation Yrotation Zrotation
										End Site
										{
											OFFSET 1.690319 -0.452920 0.000000
										}
									}
								}
							}
						}
					}
				}
			}
		}
	}
	JOINT RightUpLeg
	{
		OFFSET -2.338570 -0.252550 -0.551512
		CHANNELS 6 Xposition Yposition Zposition Xrotation Yrotation Zrotation
		JOINT RightLeg
		{
			OFFSET 0.000000 0.000000 -10.744959
			CHANNELS 6 Xposition Yposition Zposition Xrotation Yrotation Zrotation
			JOINT RightFoot
			{
				OFFSET 0.000000 -0.000001 -10.930849
				CHANNELS 6 Xposition Yposition Zposition Xrotation Yrotation Zrotation
				JOINT RightToeBase
				{
					OFFSET 0.000000 -4.087269 -1.487650
					CHANNELS 6 Xposition Yposition Zposition Xrotation Yrotation Zrotation
					End Site
					{
						OFFSET 0.000000 -1.891870 0.000000
					}
				}
			}
		}
	}
	JOINT LeftUpLeg
	{
		OFFSET 2.338570 -0.252550 -0.551512
		CHANNELS 6 Xposition Yposition Zposition Xrotation Yrotation Zrotation
		JOINT LeftLeg
		{
			OFFSET 0.000000 0.000000 -10.744959
			CHANNELS 6 Xposition Yposition Zposition Xrotation Yrotation Zrotation
			JOINT LeftFoot
			{
				OFFSET 0.000000 -0.000001 -10.930849
				CHANNELS 6 Xposition Yposition Zposition Xrotation Yrotation Zrotation
				JOINT LeftToeBase
				{
					OFFSET 0.000000 -4.087269 -1.487650
					CHANNELS 6 Xposition Yposition Zposition Xrotation Yrotation Zrotation
					End Site
					{
						OFFSET 0.000000 -1.891870 0.000000
					}
				}
			}
		}
	}
}
MOTION
Frames: 4
Frame Time: 0.041667
0.000049 26.675142 39.237389 -7.145711 2.129132 -17.754284 -0.000020 0.900097 1.860693 18.608154 -0.507340 -0.691084 0.000012 0.400270 2.270319 -0.000001 -0.000001 0.000002 0.000018 0.200902 2.296537 0.000002 -0.000001 -0.000000 0.000032 0.000005 2.305326 -0.000043 0.000000 1.210949 -0.000016 -0.864467 6.051445 9.299235 -3.304420 -180.118837 0.000010 -0.550432 3.121693 -0.000004 0.000001 -0.000000 -0.788272 -1.313731 4.256821 -143.335536 53.678778 -37.904258 -3.915109 -0.000012 -0.000019 -0.000001 -0.000000 0.000001 -6.914914 -0.000008 -0.000004 -0.000048 -0.000073 -78.820909 -6.096190 0.000005 0.000022 0.000040 0.000175 -0.000029 -1.749898 -0.000031 0.000035 -0.000001 -0.000002 -0.000003 -0.699972 -1.166631 -0.466660 -0.000013 -0.000006 0.000003 0.788256 -1.313781 4.256754 -141.485921 -59.695635 37.982631 3.915191 0.000005 -0.000038 0.000003 -0.000003 0.000006 6.914954 -0.000044 0.000004 -0.000029 0.000070 62.131014 6.096235 0.000099 -0.000033 0.000141 -0.000207 -0.000040 1.749981 0.000014 0.000033 -0.000005 -0.000006 0.000003 0.699943 -1.166602 -0.466633 0.000009 -0.000001 -0.000024 -2.338565 -0.252543 -0.551496 18.942363 -0.932372 -0.696856 0.000013 -0.000025 -10.744965 9.035955 0.278155 -0.464971 -0.000025 0.000105 -10.930823 -0.000024 -0.000005 -0.000003 0.000011 -4.087267 -1.487642 0.000001 0.000001 0.000001 2.338573 -0.252551 -0.551470 16.982873 -3.876144 -0.641143 -0.000000 -0.000034 -10.744896 10.825942 1.348592 -1.122102 -0.000010 0.000026 -10.930865 -0.000002 -0.000006 -0.000000 -0.000019 -4.087222 -1.487644 0.000005 0.000003 0.000002 
0.000043 26.675146 39.237385 -7.329295 1.943945 -17.568333 -0.000020 0.900099 1.860695 18.890396 -0.671942 -0.756773 0.000013 0.400272 2.270321 -0.000002 -0.000002 0.000001 0.000017 0.200902 2.296541 0.000004 -0.000001 0.000000 0.000031 0.000005 2.305322 -0.000042 0.000001 0.992532 -0.000017 -0.864464 6.051445 9.022873 -3.834842 -179.352148 0.000011 -0.550431 3.121700 -0.000003 -0.000000 0.000002 -0.788272 -1.313728 4.256818 -133.771386 50.065324 -45.997605 -3.915113 -0.000015 -0.000023 -0.000000 0.000000 0.000001 -6.914925 -0.000009 -0.000007 -0.000032 -0.000059 -67.372112 -6.096189 0.000010 0.000026 0.000039 0.000174 -0.000031 -1.749895 -0.000039 0.000034 -0.000002 -0.000003 -0.000002 -0.699970 -1.166633 -0.466663 -0.000015 -0.000009 0.000003 0.788260 -1.313777 4.256752 -134.900102 -58.927785 43.994751 3.915185 0.000005 -0.000034 0.000008 0.000000 0.000004 6.914946 -0.000047 0.000004 -0.000006 0.000046 46.239370 6.096233 0.000101 -0.000038 0.000136 -0.000203 -0.000043 1.749979 0.000015 0.000030 -0.000002 -0.000009 0.000002 0.699945 -1.166605 -0.466638 0.000015 -0.000004 -0.000021 -2.338564 -0.252541 -0.551493 19.146142 -0.098359 -0.760101 0.000013 -0.000032 -10.744967 9.180313 -0.399517 -0.364727 -0.000025 0.000102 -10.930822 -0.000022 -0.000003 -0.000002 0.000009 -4.087268 -1.487643 0.000002 0.000002 -0.000001 2.338572 -0.252546 -0.551468 17.200433 -3.151544 -0.698935 -0.000001 -0.000031 -10.744896 10.844055 1.312837 -1.017339 -0.000012 0.000025 -10.930862 0.000000 -0.000002 0.000001 -0.000017 -4.087227 -1.487650 0.000002 0.000001 0.000000 
0.000039 26.675146 39.237381 -7.243352 2.058287 -17.923419 -0.000018 0.900097 1.860696 19.133025 -1.009711 -0.786132 0.000013 0.400271 2.270330 -0.000002 -0.000002 0.000002 0.000018 0.200899 2.296540 0.000003 -0.000001 -0.000002 0.000032 0.000001 2.305333 -0.000045 0.000001 0.628328 -0.000017 -0.864465 6.051445 9.099356 -4.170965 -179.580030 0.000010 -0.550432 3.121696 -0.000001 0.000000 0.000001 -0.788276 -1.313729 4.256810 -128.928345 48.250451 -50.634607 -3.915107 -0.000013 -0.000027 -0.000003 0.000004 0.000001 -6.914924 -0.000006 -0.000008 -0.000019 -0.000046 -57.661181 -6.096185 0.000008 0.000019 0.000041 0.000174 -0.000026 -1.749903 -0.000031 0.000031 -0.000001 -0.000001 0.000001 -0.699977 -1.166627 -0.466659 -0.000013 -0.000008 0.000001 0.788261 -1.313781 4.256748 -127.532391 -56.160978 51.031051 3.915190 0.000002 -0.000042 0.000009 -0.000001 0.000003 6.914959 -0.000044 -0.000005 0.000005 0.000029 38.115570 6.096228 0.000101 -0.000031 0.000141 -0.000205 -0.000041 1.749982 0.000013 0.000033 -0.000006 -0.000004 0.000003 0.699944 -1.166605 -0.466635 0.000016 0.000001 -0.000023 -2.338564 -0.252542 -0.551494 18.961263 0.552631 -0.772628 0.000012 -0.000026 -10.744968 9.645832 -0.850121 -0.283834 -0.000025 0.000100 -10.930822 -0.000024 -0.000004 -0.000004 0.000009 -4.087265 -1.487639 0.000004 0.000002 0.000001 2.338574 -0.252550 -0.551465 17.344577 -2.710985 -0.721841 0.000001 -0.000031 -10.744894 11.020943 1.357614 -0.959797 -0.000013 0.000029 -10.930860 -0.000002 -0.000003 0.000004 -0.000017 -4.087224 -1.487646 -0.000003 0.000001 -0.000001 
0.000038 26.675142 39.237385 -7.087963 2.265881 -18.039040 -0.000019 0.900094 1.860691 19.120963 -1.490110 -0.791551 0.000013 0.400269 2.270329 -0.000002 -0.000001 0.000004 0.000017 0.200900 2.296541 0.000004 -0.000001 0.000002 0.000030 0.000003 2.305329 -0.000044 0.000002 0.527466 -0.000017 -0.864470 6.051447 8.980829 -4.457437 -179.403798 0.000010 -0.550430 3.121700 -0.000002 0.000001 -0.000000 -0.788273 -1.313735 4.256811 -126.604141 47.818175 -53.242028 -3.915105 -0.000015 -0.000026 -0.000001 0.000001 -0.000001 -6.914926 -0.000010 0.000001 -0.000008 -0.000033 -49.982863 -6.096185 0.000006 0.000022 0.000042 0.000174 -0.000027 -1.749891 -0.000036 0.000034 -0.000000 -0.000002 0.000004 -0.699969 -1.166630 -0.466663 -0.000015 -0.000010 0.000002 0.788260 -1.313783 4.256752 -125.091896 -56.296817 53.960762 3.915187 0.000008 -0.000034 0.000006 -0.000004 0.000005 6.914953 -0.000046 0.000001 0.000005 0.000018 33.391046 6.096233 0.000099 -0.000028 0.000136 -0.000206 -0.000042 1.749980 0.000014 0.000027 -0.000004 -0.000011 -0.000000 0.699950 -1.166605 -0.466638 0.000013 -0.000003 -0.000025 -2.338564 -0.252545 -0.551496 18.796409 0.788539 -0.771603 0.000014 -0.000030 -10.744969 9.865933 -0.776629 -0.252782 -0.000027 0.000101 -10.930822 -0.000022 -0.000004 0.000000 0.000011 -4.087272 -1.487643 0.000004 0.000001 -0.000001 2.338574 -0.252552 -0.551466 17.372957 -2.779077 -0.727926 -0.000001 -0.000032 -10.744895 10.827533 1.780535 -0.958572 -0.000013 0.000021 -10.930861 -0.000002 -0.000003 0.000002 -0.000018 -4.087220 -1.487647 0.000006 0.000003 -0.000001 
